<svg id="visual" viewBox="0 0 1600 720" width="1600" height="720" xmlns="http://www.w3.org/2000/svg" xmlns:xlink="http://www.w3.org/1999/xlink" version="1.1"><rect x="0" y="0" width="1600" height="720" fill="#37312E"></rect><g transform="translate(1633.1093862877526 -7.816631053860448)"><path d="M359.5 -400.3C455 -348.3 514.1 -224.7 493.6 -119.8C473 -14.9 372.9 71.3 304.1 161.5C235.2 251.6 197.6 345.7 123.3 398.7C49 451.7 -62 463.6 -171.7 438.2C-281.4 412.8 -389.7 350.2 -464.2 252.7C-538.8 155.2 -579.6 22.9 -558.2 -98.4C-536.8 -219.8 -453.2 -330.1 -349.8 -380.7C-246.4 -431.3 -123.2 -422.2 4.4 -427.4C132 -432.6 264 -452.3 359.5 -400.3" fill="#F7882D"></path></g></svg>